<svg viewBox="0 0 432 432" fill="none" xmlns="http://www.w3.org/2000/svg">
<rect fill="#242129" />
<path d="M104.044 171.819L104.044 189.273L101.623 189.273L92.7511 176.472L92.5891 176.472L92.5891 189.273L89.9556 189.273L89.9556 171.819L92.3931 171.819L101.274 184.637L101.436 184.637L101.436 171.819L104.044 171.819ZM112.739 189.538C111.512 189.538 110.441 189.256 109.526 188.694C108.611 188.131 107.901 187.344 107.395 186.333C106.89 185.322 106.637 184.14 106.637 182.788C106.637 181.43 106.89 180.242 107.395 179.225C107.901 178.208 108.611 177.418 109.526 176.856C110.441 176.293 111.512 176.012 112.739 176.012C113.966 176.012 115.037 176.293 115.952 176.856C116.867 177.418 117.577 178.208 118.083 179.225C118.588 180.242 118.841 181.43 118.841 182.788C118.841 184.14 118.588 185.322 118.083 186.333C117.577 187.344 116.867 188.131 115.952 188.694C115.037 189.256 113.966 189.538 112.739 189.538ZM112.747 187.398C113.543 187.398 114.202 187.188 114.725 186.768C115.247 186.347 115.634 185.788 115.884 185.089C116.14 184.39 116.267 183.62 116.267 182.779C116.267 181.944 116.14 181.177 115.884 180.478C115.634 179.773 115.247 179.208 114.725 178.782C114.202 178.356 113.543 178.143 112.747 178.143C111.946 178.143 111.282 178.356 110.753 178.782C110.23 179.208 109.841 179.773 109.586 180.478C109.336 181.177 109.211 181.944 109.211 182.779C109.211 183.62 109.336 184.39 109.586 185.089C109.841 185.788 110.23 186.347 110.753 186.768C111.282 187.188 111.946 187.398 112.747 187.398ZM141.418 171.819L141.418 189.273L138.997 189.273L130.125 176.472L129.963 176.472L129.963 189.273L127.33 189.273L127.33 171.819L129.767 171.819L138.648 184.637L138.81 184.637L138.81 171.819L141.418 171.819ZM144.803 189.273L144.803 171.819L155.627 171.819L155.627 174.086L147.437 174.086L147.437 179.404L154.852 179.404L154.852 181.663L147.437 181.663L147.437 189.273L144.803 189.273ZM157.549 174.086L157.549 171.819L171.058 171.819L171.058 174.086L165.612 174.086L165.612 189.273L162.987 189.273L162.987 174.086L157.549 174.086ZM181.411 179.379L179.101 179.788C179.004 179.492 178.851 179.211 178.641 178.944C178.436 178.677 178.158 178.458 177.806 178.288C177.453 178.117 177.013 178.032 176.485 178.032C175.763 178.032 175.161 178.194 174.678 178.518C174.195 178.836 173.953 179.248 173.953 179.754C173.953 180.191 174.115 180.543 174.439 180.81C174.763 181.077 175.286 181.296 176.007 181.467L178.087 181.944C179.291 182.222 180.189 182.651 180.78 183.231C181.371 183.81 181.666 184.563 181.666 185.489C181.666 186.273 181.439 186.972 180.985 187.586C180.536 188.194 179.908 188.671 179.101 189.018C178.3 189.364 177.371 189.538 176.314 189.538C174.848 189.538 173.652 189.225 172.726 188.6C171.8 187.969 171.232 187.075 171.021 185.915L173.485 185.54C173.638 186.183 173.953 186.668 174.431 186.998C174.908 187.322 175.53 187.484 176.297 187.484C177.132 187.484 177.8 187.31 178.3 186.964C178.8 186.612 179.05 186.183 179.05 185.677C179.05 185.268 178.896 184.924 178.59 184.646C178.289 184.367 177.825 184.157 177.2 184.015L174.985 183.529C173.763 183.251 172.86 182.808 172.274 182.2C171.695 181.592 171.405 180.822 171.405 179.89C171.405 179.117 171.621 178.441 172.053 177.862C172.485 177.282 173.081 176.83 173.842 176.506C174.604 176.177 175.476 176.012 176.459 176.012C177.874 176.012 178.987 176.319 179.8 176.933C180.612 177.54 181.149 178.356 181.411 179.379ZM196.138 176.183L196.138 178.228L188.74 178.228L188.74 176.183L196.138 176.183ZM190.769 189.273L190.769 174.665C190.769 173.847 190.948 173.168 191.305 172.629C191.663 172.083 192.138 171.677 192.729 171.41C193.32 171.137 193.962 171.001 194.655 171.001C195.166 171.001 195.604 171.043 195.967 171.129C196.331 171.208 196.601 171.282 196.777 171.35L196.18 173.413C196.061 173.379 195.908 173.339 195.72 173.293C195.533 173.242 195.305 173.217 195.038 173.217C194.419 173.217 193.976 173.37 193.709 173.677C193.448 173.984 193.317 174.427 193.317 175.006L193.317 189.273L190.769 189.273ZM203.31 189.538C202.082 189.538 201.011 189.256 200.097 188.694C199.182 188.131 198.472 187.344 197.966 186.333C197.46 185.322 197.207 184.14 197.207 182.788C197.207 181.43 197.46 180.242 197.966 179.225C198.472 178.208 199.182 177.418 200.097 176.856C201.011 176.293 202.082 176.012 203.31 176.012C204.537 176.012 205.608 176.293 206.523 176.856C207.438 177.418 208.148 178.208 208.653 179.225C209.159 180.242 209.412 181.43 209.412 182.788C209.412 184.14 209.159 185.322 208.653 186.333C208.148 187.344 207.438 188.131 206.523 188.694C205.608 189.256 204.537 189.538 203.31 189.538ZM203.318 187.398C204.114 187.398 204.773 187.188 205.296 186.768C205.818 186.347 206.205 185.788 206.455 185.089C206.71 184.39 206.838 183.62 206.838 182.779C206.838 181.944 206.71 181.177 206.455 180.478C206.205 179.773 205.818 179.208 205.296 178.782C204.773 178.356 204.114 178.143 203.318 178.143C202.517 178.143 201.852 178.356 201.324 178.782C200.801 179.208 200.412 179.773 200.156 180.478C199.906 181.177 199.781 181.944 199.781 182.779C199.781 183.62 199.906 184.39 200.156 185.089C200.412 185.788 200.801 186.347 201.324 186.768C201.852 187.188 202.517 187.398 203.318 187.398ZM220.093 183.844L220.093 176.183L222.65 176.183L222.65 189.273L220.144 189.273L220.144 187.006L220.008 187.006C219.707 187.705 219.224 188.288 218.559 188.754C217.9 189.214 217.079 189.444 216.096 189.444C215.255 189.444 214.511 189.259 213.863 188.89C213.221 188.515 212.715 187.961 212.346 187.228C211.982 186.495 211.8 185.589 211.8 184.509L211.8 176.183L214.349 176.183L214.349 184.202C214.349 185.094 214.596 185.805 215.09 186.333C215.585 186.862 216.227 187.126 217.016 187.126C217.494 187.126 217.968 187.006 218.44 186.768C218.917 186.529 219.312 186.168 219.624 185.685C219.942 185.202 220.099 184.589 220.093 183.844ZM228.166 181.501L228.166 189.273L225.618 189.273L225.618 176.183L228.064 176.183L228.064 178.313L228.226 178.313C228.527 177.62 228.999 177.063 229.641 176.643C230.288 176.222 231.104 176.012 232.087 176.012C232.979 176.012 233.76 176.2 234.43 176.575C235.101 176.944 235.621 177.495 235.99 178.228C236.359 178.961 236.544 179.867 236.544 180.947L236.544 189.273L233.996 189.273L233.996 181.254C233.996 180.305 233.749 179.563 233.254 179.029C232.76 178.489 232.081 178.219 231.217 178.219C230.626 178.219 230.101 178.347 229.641 178.603C229.186 178.859 228.825 179.234 228.558 179.728C228.297 180.217 228.166 180.808 228.166 181.501ZM244.406 189.529C243.349 189.529 242.406 189.259 241.577 188.719C240.753 188.174 240.105 187.398 239.633 186.393C239.168 185.381 238.935 184.168 238.935 182.754C238.935 181.339 239.17 180.129 239.642 179.123C240.119 178.117 240.773 177.347 241.602 176.813C242.432 176.279 243.372 176.012 244.423 176.012C245.236 176.012 245.889 176.148 246.383 176.421C246.883 176.688 247.27 177.001 247.543 177.359C247.821 177.717 248.037 178.032 248.19 178.305L248.344 178.305L248.344 171.819L250.892 171.819L250.892 189.273L248.403 189.273L248.403 187.237L248.19 187.237C248.037 187.515 247.815 187.833 247.526 188.191C247.241 188.549 246.849 188.862 246.349 189.129C245.849 189.396 245.202 189.529 244.406 189.529ZM244.969 187.356C245.702 187.356 246.321 187.163 246.827 186.776C247.338 186.384 247.724 185.842 247.986 185.148C248.253 184.455 248.386 183.648 248.386 182.728C248.386 181.819 248.256 181.023 247.994 180.342C247.733 179.66 247.349 179.129 246.844 178.748C246.338 178.367 245.713 178.177 244.969 178.177C244.202 178.177 243.562 178.376 243.051 178.773C242.54 179.171 242.153 179.714 241.892 180.401C241.636 181.089 241.508 181.864 241.508 182.728C241.508 183.603 241.639 184.39 241.901 185.089C242.162 185.788 242.548 186.342 243.06 186.751C243.577 187.154 244.213 187.356 244.969 187.356ZM255.752 189.435C255.286 189.435 254.886 189.271 254.55 188.941C254.215 188.606 254.048 188.202 254.048 187.731C254.048 187.265 254.215 186.867 254.55 186.538C254.886 186.202 255.286 186.035 255.752 186.035C256.218 186.035 256.619 186.202 256.954 186.538C257.289 186.867 257.457 187.265 257.457 187.731C257.457 188.043 257.377 188.33 257.218 188.592C257.065 188.847 256.86 189.052 256.604 189.205C256.349 189.359 256.065 189.435 255.752 189.435ZM266.233 189.273L266.233 171.819L272.454 171.819C273.812 171.819 274.937 172.066 275.829 172.56C276.721 173.055 277.389 173.731 277.832 174.589C278.275 175.441 278.497 176.401 278.497 177.469C278.497 178.543 278.273 179.509 277.824 180.367C277.381 181.219 276.71 181.896 275.812 182.396C274.92 182.89 273.798 183.137 272.446 183.137L268.167 183.137L268.167 180.904L272.207 180.904C273.065 180.904 273.761 180.756 274.295 180.461C274.829 180.16 275.221 179.751 275.471 179.234C275.721 178.717 275.846 178.129 275.846 177.469C275.846 176.81 275.721 176.225 275.471 175.714C275.221 175.202 274.827 174.802 274.287 174.512C273.753 174.222 273.048 174.077 272.173 174.077L268.866 174.077L268.866 189.273L266.233 189.273ZM283.472 171.819L283.472 189.273L280.924 189.273L280.924 171.819L283.472 171.819ZM292.086 189.538C290.797 189.538 289.686 189.262 288.754 188.711C287.828 188.154 287.112 187.373 286.606 186.367C286.106 185.356 285.856 184.171 285.856 182.813C285.856 181.472 286.106 180.29 286.606 179.268C287.112 178.245 287.817 177.447 288.72 176.873C289.629 176.299 290.692 176.012 291.907 176.012C292.646 176.012 293.362 176.134 294.055 176.379C294.748 176.623 295.371 177.006 295.922 177.529C296.473 178.052 296.907 178.731 297.226 179.566C297.544 180.396 297.703 181.404 297.703 182.592L297.703 183.495L287.297 183.495L287.297 181.586L295.206 181.586C295.206 180.915 295.069 180.322 294.797 179.805C294.524 179.282 294.14 178.87 293.646 178.569C293.157 178.268 292.584 178.117 291.925 178.117C291.209 178.117 290.584 178.293 290.05 178.646C289.521 178.992 289.112 179.447 288.822 180.009C288.538 180.566 288.396 181.171 288.396 181.825L288.396 183.316C288.396 184.191 288.55 184.935 288.856 185.549C289.169 186.163 289.603 186.631 290.16 186.955C290.717 187.273 291.368 187.433 292.112 187.433C292.595 187.433 293.035 187.364 293.433 187.228C293.831 187.086 294.175 186.876 294.464 186.597C294.754 186.319 294.976 185.975 295.129 185.566L297.541 186.001C297.348 186.711 297.001 187.333 296.501 187.867C296.007 188.396 295.385 188.808 294.635 189.103C293.89 189.393 293.041 189.538 292.086 189.538ZM303.884 189.563C303.054 189.563 302.304 189.41 301.634 189.103C300.964 188.79 300.432 188.339 300.04 187.748C299.654 187.157 299.461 186.433 299.461 185.575C299.461 184.836 299.603 184.228 299.887 183.751C300.171 183.273 300.554 182.896 301.037 182.617C301.52 182.339 302.06 182.129 302.657 181.987C303.253 181.844 303.861 181.737 304.481 181.663C305.265 181.572 305.901 181.498 306.39 181.441C306.878 181.379 307.233 181.279 307.455 181.143C307.677 181.006 307.787 180.785 307.787 180.478L307.787 180.418C307.787 179.674 307.577 179.097 307.157 178.688C306.742 178.279 306.123 178.075 305.299 178.075C304.441 178.075 303.765 178.265 303.27 178.646C302.782 179.021 302.444 179.438 302.256 179.898L299.861 179.353C300.145 178.558 300.56 177.915 301.106 177.427C301.657 176.933 302.29 176.575 303.006 176.353C303.722 176.126 304.475 176.012 305.265 176.012C305.787 176.012 306.341 176.075 306.927 176.2C307.518 176.319 308.069 176.54 308.58 176.864C309.097 177.188 309.52 177.651 309.85 178.254C310.179 178.85 310.344 179.626 310.344 180.58L310.344 189.273L307.856 189.273L307.856 187.484L307.753 187.484C307.589 187.813 307.341 188.137 307.012 188.455C306.682 188.773 306.259 189.038 305.742 189.248C305.225 189.458 304.606 189.563 303.884 189.563ZM304.438 187.518C305.143 187.518 305.745 187.379 306.245 187.1C306.75 186.822 307.134 186.458 307.395 186.009C307.662 185.555 307.796 185.069 307.796 184.552L307.796 182.864C307.705 182.955 307.529 183.04 307.268 183.12C307.012 183.194 306.719 183.259 306.39 183.316C306.06 183.367 305.739 183.415 305.427 183.461C305.114 183.501 304.853 183.535 304.643 183.563C304.148 183.626 303.696 183.731 303.287 183.879C302.884 184.026 302.56 184.239 302.316 184.518C302.077 184.79 301.958 185.154 301.958 185.609C301.958 186.239 302.191 186.717 302.657 187.04C303.123 187.359 303.716 187.518 304.438 187.518ZM323.092 179.379L320.782 179.788C320.686 179.492 320.532 179.211 320.322 178.944C320.118 178.677 319.839 178.458 319.487 178.288C319.135 178.117 318.694 178.032 318.166 178.032C317.444 178.032 316.842 178.194 316.359 178.518C315.876 178.836 315.635 179.248 315.635 179.754C315.635 180.191 315.797 180.543 316.12 180.81C316.444 181.077 316.967 181.296 317.689 181.467L319.768 181.944C320.973 182.222 321.87 182.651 322.461 183.231C323.052 183.81 323.348 184.563 323.348 185.489C323.348 186.273 323.12 186.972 322.666 187.586C322.217 188.194 321.589 188.671 320.782 189.018C319.981 189.364 319.052 189.538 317.995 189.538C316.53 189.538 315.334 189.225 314.407 188.6C313.481 187.969 312.913 187.075 312.703 185.915L315.166 185.54C315.319 186.183 315.635 186.668 316.112 186.998C316.589 187.322 317.211 187.484 317.978 187.484C318.814 187.484 319.481 187.31 319.981 186.964C320.481 186.612 320.731 186.183 320.731 185.677C320.731 185.268 320.578 184.924 320.271 184.646C319.97 184.367 319.507 184.157 318.882 184.015L316.666 183.529C315.444 183.251 314.541 182.808 313.956 182.2C313.376 181.592 313.086 180.822 313.086 179.89C313.086 179.117 313.302 178.441 313.734 177.862C314.166 177.282 314.762 176.83 315.524 176.506C316.285 176.177 317.157 176.012 318.14 176.012C319.555 176.012 320.669 176.319 321.481 176.933C322.294 177.54 322.831 178.356 323.092 179.379ZM331.336 189.538C330.046 189.538 328.935 189.262 328.003 188.711C327.077 188.154 326.361 187.373 325.855 186.367C325.355 185.356 325.105 184.171 325.105 182.813C325.105 181.472 325.355 180.29 325.855 179.268C326.361 178.245 327.066 177.447 327.969 176.873C328.878 176.299 329.941 176.012 331.157 176.012C331.895 176.012 332.611 176.134 333.304 176.379C333.998 176.623 334.62 177.006 335.171 177.529C335.722 178.052 336.157 178.731 336.475 179.566C336.793 180.396 336.952 181.404 336.952 182.592L336.952 183.495L326.546 183.495L326.546 181.586L334.455 181.586C334.455 180.915 334.319 180.322 334.046 179.805C333.773 179.282 333.39 178.87 332.895 178.569C332.407 178.268 331.833 178.117 331.174 178.117C330.458 178.117 329.833 178.293 329.299 178.646C328.77 178.992 328.361 179.447 328.071 180.009C327.787 180.566 327.645 181.171 327.645 181.825L327.645 183.316C327.645 184.191 327.799 184.935 328.105 185.549C328.418 186.163 328.853 186.631 329.409 186.955C329.966 187.273 330.617 187.433 331.361 187.433C331.844 187.433 332.284 187.364 332.682 187.228C333.08 187.086 333.424 186.876 333.713 186.597C334.003 186.319 334.225 185.975 334.378 185.566L336.79 186.001C336.597 186.711 336.25 187.333 335.75 187.867C335.256 188.396 334.634 188.808 333.884 189.103C333.14 189.393 332.29 189.538 331.336 189.538ZM92.1577 225.538C90.8907 225.538 89.7998 225.251 88.885 224.677C87.9759 224.097 87.2771 223.299 86.7884 222.282C86.2998 221.265 86.0555 220.1 86.0555 218.788C86.0555 217.458 86.3055 216.285 86.8055 215.268C87.3055 214.245 88.01 213.447 88.9191 212.873C89.8282 212.299 90.8992 212.012 92.1322 212.012C93.1265 212.012 94.0129 212.197 94.7913 212.566C95.5697 212.93 96.1975 213.441 96.6748 214.1C97.1577 214.759 97.4447 215.529 97.5356 216.41L95.0555 216.41C94.9191 215.796 94.6066 215.268 94.118 214.825C93.635 214.381 92.9873 214.16 92.1748 214.16C91.4646 214.16 90.8424 214.347 90.3083 214.722C89.7799 215.092 89.368 215.62 89.0725 216.308C88.7771 216.989 88.6293 217.796 88.6293 218.728C88.6293 219.683 88.7742 220.506 89.064 221.2C89.3538 221.893 89.7629 222.43 90.2913 222.81C90.8254 223.191 91.4532 223.381 92.1748 223.381C92.6577 223.381 93.0952 223.293 93.4873 223.117C93.885 222.935 94.2174 222.677 94.4844 222.342C94.7572 222.006 94.9475 221.603 95.0555 221.131L97.5356 221.131C97.4447 221.978 97.1691 222.734 96.7089 223.398C96.2486 224.063 95.6322 224.586 94.8594 224.967C94.0924 225.347 93.1918 225.538 92.1577 225.538ZM102.353 217.501L102.353 225.273L99.8047 225.273L99.8047 207.819L102.319 207.819L102.319 214.313L102.481 214.313C102.788 213.609 103.256 213.049 103.887 212.634C104.518 212.219 105.342 212.012 106.359 212.012C107.256 212.012 108.041 212.197 108.711 212.566C109.387 212.935 109.91 213.487 110.279 214.219C110.654 214.947 110.842 215.856 110.842 216.947L110.842 225.273L108.293 225.273L108.293 217.254C108.293 216.293 108.046 215.549 107.552 215.021C107.058 214.487 106.37 214.219 105.489 214.219C104.887 214.219 104.347 214.347 103.87 214.603C103.398 214.859 103.026 215.234 102.754 215.728C102.487 216.217 102.353 216.808 102.353 217.501ZM119.428 225.538C118.138 225.538 117.028 225.262 116.096 224.711C115.17 224.154 114.454 223.373 113.948 222.367C113.448 221.356 113.198 220.171 113.198 218.813C113.198 217.472 113.448 216.29 113.948 215.268C114.454 214.245 115.158 213.447 116.062 212.873C116.971 212.299 118.033 212.012 119.249 212.012C119.988 212.012 120.704 212.134 121.397 212.379C122.09 212.623 122.712 213.006 123.263 213.529C123.815 214.052 124.249 214.731 124.567 215.566C124.886 216.396 125.045 217.404 125.045 218.592L125.045 219.495L114.638 219.495L114.638 217.586L122.548 217.586C122.548 216.915 122.411 216.322 122.138 215.805C121.866 215.282 121.482 214.87 120.988 214.569C120.499 214.268 119.925 214.117 119.266 214.117C118.55 214.117 117.925 214.293 117.391 214.646C116.863 214.992 116.454 215.447 116.164 216.009C115.88 216.566 115.738 217.171 115.738 217.825L115.738 219.316C115.738 220.191 115.891 220.935 116.198 221.549C116.511 222.163 116.945 222.631 117.502 222.955C118.059 223.273 118.71 223.433 119.454 223.433C119.937 223.433 120.377 223.364 120.775 223.228C121.173 223.086 121.516 222.876 121.806 222.597C122.096 222.319 122.317 221.975 122.471 221.566L124.883 222.001C124.69 222.711 124.343 223.333 123.843 223.867C123.349 224.396 122.727 224.808 121.977 225.103C121.232 225.393 120.383 225.538 119.428 225.538ZM132.93 225.538C131.663 225.538 130.572 225.251 129.658 224.677C128.749 224.097 128.05 223.299 127.561 222.282C127.072 221.265 126.828 220.1 126.828 218.788C126.828 217.458 127.078 216.285 127.578 215.268C128.078 214.245 128.783 213.447 129.692 212.873C130.601 212.299 131.672 212.012 132.905 212.012C133.899 212.012 134.785 212.197 135.564 212.566C136.342 212.93 136.97 213.441 137.447 214.1C137.93 214.759 138.217 215.529 138.308 216.41L135.828 216.41C135.692 215.796 135.379 215.268 134.891 214.825C134.408 214.381 133.76 214.16 132.947 214.16C132.237 214.16 131.615 214.347 131.081 214.722C130.553 215.092 130.141 215.62 129.845 216.308C129.55 216.989 129.402 217.796 129.402 218.728C129.402 219.683 129.547 220.506 129.837 221.2C130.126 221.893 130.535 222.43 131.064 222.81C131.598 223.191 132.226 223.381 132.947 223.381C133.43 223.381 133.868 223.293 134.26 223.117C134.658 222.935 134.99 222.677 135.257 222.342C135.53 222.006 135.72 221.603 135.828 221.131L138.308 221.131C138.217 221.978 137.942 222.734 137.482 223.398C137.021 224.063 136.405 224.586 135.632 224.967C134.865 225.347 133.964 225.538 132.93 225.538ZM142.921 220.833L142.904 217.722L143.347 217.722L148.563 212.183L151.614 212.183L145.665 218.489L145.265 218.489L142.921 220.833ZM140.577 225.273L140.577 207.819L143.126 207.819L143.126 225.273L140.577 225.273ZM148.844 225.273L144.157 219.052L145.913 217.271L151.972 225.273L148.844 225.273ZM160.987 230.183C160.606 230.183 160.26 230.151 159.947 230.089C159.635 230.032 159.402 229.969 159.248 229.901L159.862 227.813C160.328 227.938 160.743 227.992 161.106 227.975C161.47 227.958 161.791 227.822 162.069 227.566C162.354 227.31 162.604 226.893 162.819 226.313L163.135 225.444L158.345 212.183L161.072 212.183L164.388 222.342L164.524 222.342L167.839 212.183L170.575 212.183L165.18 227.021C164.93 227.702 164.612 228.279 164.226 228.751C163.839 229.228 163.379 229.586 162.845 229.825C162.311 230.063 161.692 230.183 160.987 230.183ZM177.583 225.538C176.356 225.538 175.285 225.256 174.37 224.694C173.455 224.131 172.745 223.344 172.239 222.333C171.733 221.322 171.481 220.14 171.481 218.788C171.481 217.43 171.733 216.242 172.239 215.225C172.745 214.208 173.455 213.418 174.37 212.856C175.285 212.293 176.356 212.012 177.583 212.012C178.81 212.012 179.881 212.293 180.796 212.856C181.711 213.418 182.421 214.208 182.927 215.225C183.432 216.242 183.685 217.43 183.685 218.788C183.685 220.14 183.432 221.322 182.927 222.333C182.421 223.344 181.711 224.131 180.796 224.694C179.881 225.256 178.81 225.538 177.583 225.538ZM177.591 223.398C178.387 223.398 179.046 223.188 179.569 222.768C180.091 222.347 180.478 221.788 180.728 221.089C180.983 220.39 181.111 219.62 181.111 218.779C181.111 217.944 180.983 217.177 180.728 216.478C180.478 215.773 180.091 215.208 179.569 214.782C179.046 214.356 178.387 214.143 177.591 214.143C176.79 214.143 176.126 214.356 175.597 214.782C175.074 215.208 174.685 215.773 174.43 216.478C174.18 217.177 174.055 217.944 174.055 218.779C174.055 219.62 174.18 220.39 174.43 221.089C174.685 221.788 175.074 222.347 175.597 222.768C176.126 223.188 176.79 223.398 177.591 223.398ZM194.366 219.844L194.366 212.183L196.923 212.183L196.923 225.273L194.417 225.273L194.417 223.006L194.281 223.006C193.98 223.705 193.497 224.288 192.832 224.754C192.173 225.214 191.352 225.444 190.369 225.444C189.528 225.444 188.784 225.259 188.136 224.89C187.494 224.515 186.988 223.961 186.619 223.228C186.255 222.495 186.074 221.589 186.074 220.509L186.074 212.183L188.622 212.183L188.622 220.202C188.622 221.094 188.869 221.805 189.363 222.333C189.858 222.862 190.5 223.126 191.29 223.126C191.767 223.126 192.241 223.006 192.713 222.768C193.19 222.529 193.585 222.168 193.898 221.685C194.216 221.202 194.372 220.589 194.366 219.844ZM199.891 225.273L199.891 212.183L202.354 212.183L202.354 214.262L202.491 214.262C202.729 213.558 203.15 213.004 203.752 212.6C204.36 212.191 205.047 211.987 205.814 211.987C205.973 211.987 206.161 211.992 206.377 212.004C206.598 212.015 206.772 212.029 206.897 212.046L206.897 214.484C206.795 214.455 206.613 214.424 206.351 214.39C206.09 214.35 205.829 214.33 205.567 214.33C204.965 214.33 204.428 214.458 203.956 214.714C203.491 214.964 203.121 215.313 202.848 215.762C202.576 216.205 202.439 216.711 202.439 217.279L202.439 225.273L199.891 225.273ZM220.772 212.183L220.772 214.228L213.374 214.228L213.374 212.183L220.772 212.183ZM215.402 225.273L215.402 210.665C215.402 209.847 215.581 209.168 215.939 208.629C216.297 208.083 216.772 207.677 217.363 207.41C217.954 207.137 218.596 207.001 219.289 207.001C219.8 207.001 220.238 207.043 220.601 207.129C220.965 207.208 221.235 207.282 221.411 207.35L220.814 209.413C220.695 209.379 220.542 209.339 220.354 209.293C220.167 209.242 219.939 209.217 219.672 209.217C219.053 209.217 218.61 209.37 218.343 209.677C218.081 209.984 217.951 210.427 217.951 211.006L217.951 225.273L215.402 225.273ZM222.945 225.273L222.945 212.183L225.493 212.183L225.493 225.273L222.945 225.273ZM224.232 210.163C223.789 210.163 223.408 210.015 223.09 209.719C222.777 209.418 222.621 209.06 222.621 208.646C222.621 208.225 222.777 207.867 223.09 207.572C223.408 207.271 223.789 207.12 224.232 207.12C224.675 207.12 225.053 207.271 225.365 207.572C225.684 207.867 225.843 208.225 225.843 208.646C225.843 209.06 225.684 209.418 225.365 209.719C225.053 210.015 224.675 210.163 224.232 210.163ZM231.014 207.819L231.014 225.273L228.466 225.273L228.466 207.819L231.014 207.819ZM240.097 212.183L240.097 214.228L232.946 214.228L232.946 212.183L240.097 212.183ZM234.864 209.046L237.412 209.046L237.412 221.43C237.412 221.924 237.486 222.296 237.634 222.546C237.782 222.79 237.972 222.958 238.205 223.049C238.443 223.134 238.702 223.177 238.98 223.177C239.185 223.177 239.364 223.163 239.517 223.134C239.671 223.106 239.79 223.083 239.875 223.066L240.336 225.171C240.188 225.228 239.978 225.285 239.705 225.342C239.432 225.404 239.091 225.438 238.682 225.444C238.012 225.455 237.387 225.336 236.807 225.086C236.228 224.836 235.759 224.45 235.401 223.927C235.043 223.404 234.864 222.748 234.864 221.958L234.864 209.046ZM247.961 225.538C246.671 225.538 245.561 225.262 244.629 224.711C243.703 224.154 242.987 223.373 242.481 222.367C241.981 221.356 241.731 220.171 241.731 218.813C241.731 217.472 241.981 216.29 242.481 215.268C242.987 214.245 243.691 213.447 244.595 212.873C245.504 212.299 246.566 212.012 247.782 212.012C248.521 212.012 249.237 212.134 249.93 212.379C250.623 212.623 251.245 213.006 251.796 213.529C252.348 214.052 252.782 214.731 253.1 215.566C253.419 216.396 253.578 217.404 253.578 218.592L253.578 219.495L243.171 219.495L243.171 217.586L251.081 217.586C251.081 216.915 250.944 216.322 250.671 215.805C250.399 215.282 250.015 214.87 249.521 214.569C249.032 214.268 248.458 214.117 247.799 214.117C247.083 214.117 246.458 214.293 245.924 214.646C245.396 214.992 244.987 215.447 244.697 216.009C244.413 216.566 244.271 217.171 244.271 217.825L244.271 219.316C244.271 220.191 244.424 220.935 244.731 221.549C245.044 222.163 245.478 222.631 246.035 222.955C246.592 223.273 247.242 223.433 247.987 223.433C248.47 223.433 248.91 223.364 249.308 223.228C249.706 223.086 250.049 222.876 250.339 222.597C250.629 222.319 250.85 221.975 251.004 221.566L253.416 222.001C253.223 222.711 252.876 223.333 252.376 223.867C251.882 224.396 251.26 224.808 250.51 225.103C249.765 225.393 248.916 225.538 247.961 225.538ZM255.949 225.273L255.949 212.183L258.412 212.183L258.412 214.262L258.549 214.262C258.787 213.558 259.208 213.004 259.81 212.6C260.418 212.191 261.105 211.987 261.872 211.987C262.031 211.987 262.219 211.992 262.435 212.004C262.656 212.015 262.83 212.029 262.955 212.046L262.955 214.484C262.853 214.455 262.671 214.424 262.409 214.39C262.148 214.35 261.887 214.33 261.625 214.33C261.023 214.33 260.486 214.458 260.014 214.714C259.549 214.964 259.179 215.313 258.906 215.762C258.634 216.205 258.497 216.711 258.497 217.279L258.497 225.273L255.949 225.273ZM274.514 215.379L272.204 215.788C272.107 215.492 271.954 215.211 271.744 214.944C271.539 214.677 271.261 214.458 270.909 214.288C270.556 214.117 270.116 214.032 269.588 214.032C268.866 214.032 268.264 214.194 267.781 214.518C267.298 214.836 267.056 215.248 267.056 215.754C267.056 216.191 267.218 216.543 267.542 216.81C267.866 217.077 268.389 217.296 269.11 217.467L271.19 217.944C272.394 218.222 273.292 218.651 273.883 219.231C274.474 219.81 274.769 220.563 274.769 221.489C274.769 222.273 274.542 222.972 274.088 223.586C273.639 224.194 273.011 224.671 272.204 225.018C271.403 225.364 270.474 225.538 269.417 225.538C267.951 225.538 266.755 225.225 265.829 224.6C264.903 223.969 264.335 223.075 264.124 221.915L266.588 221.54C266.741 222.183 267.056 222.668 267.534 222.998C268.011 223.322 268.633 223.484 269.4 223.484C270.235 223.484 270.903 223.31 271.403 222.964C271.903 222.612 272.153 222.183 272.153 221.677C272.153 221.268 271.999 220.924 271.693 220.646C271.392 220.367 270.928 220.157 270.303 220.015L268.088 219.529C266.866 219.251 265.963 218.808 265.377 218.2C264.798 217.592 264.508 216.822 264.508 215.89C264.508 215.117 264.724 214.441 265.156 213.862C265.588 213.282 266.184 212.83 266.946 212.506C267.707 212.177 268.579 212.012 269.562 212.012C270.977 212.012 272.09 212.319 272.903 212.933C273.715 213.54 274.252 214.356 274.514 215.379ZM288.525 225.538C287.298 225.538 286.227 225.256 285.312 224.694C284.397 224.131 283.687 223.344 283.181 222.333C282.676 221.322 282.423 220.14 282.423 218.788C282.423 217.43 282.676 216.242 283.181 215.225C283.687 214.208 284.397 213.418 285.312 212.856C286.227 212.293 287.298 212.012 288.525 212.012C289.752 212.012 290.823 212.293 291.738 212.856C292.653 213.418 293.363 214.208 293.869 215.225C294.374 216.242 294.627 217.43 294.627 218.788C294.627 220.14 294.374 221.322 293.869 222.333C293.363 223.344 292.653 224.131 291.738 224.694C290.823 225.256 289.752 225.538 288.525 225.538ZM288.534 223.398C289.329 223.398 289.988 223.188 290.511 222.768C291.034 222.347 291.42 221.788 291.67 221.089C291.926 220.39 292.053 219.62 292.053 218.779C292.053 217.944 291.926 217.177 291.67 216.478C291.42 215.773 291.034 215.208 290.511 214.782C289.988 214.356 289.329 214.143 288.534 214.143C287.732 214.143 287.068 214.356 286.539 214.782C286.016 215.208 285.627 215.773 285.372 216.478C285.122 217.177 284.997 217.944 284.997 218.779C284.997 219.62 285.122 220.39 285.372 221.089C285.627 221.788 286.016 222.347 286.539 222.768C287.068 223.188 287.732 223.398 288.534 223.398ZM297.016 225.273L297.016 212.183L299.479 212.183L299.479 214.262L299.615 214.262C299.854 213.558 300.274 213.004 300.877 212.6C301.484 212.191 302.172 211.987 302.939 211.987C303.098 211.987 303.286 211.992 303.502 212.004C303.723 212.015 303.896 212.029 304.021 212.046L304.021 214.484C303.919 214.455 303.737 214.424 303.476 214.39C303.215 214.35 302.953 214.33 302.692 214.33C302.09 214.33 301.553 214.458 301.081 214.714C300.615 214.964 300.246 215.313 299.973 215.762C299.7 216.205 299.564 216.711 299.564 217.279L299.564 225.273L297.016 225.273ZM317.777 212.183L317.777 214.228L310.626 214.228L310.626 212.183L317.777 212.183ZM312.544 209.046L315.092 209.046L315.092 221.43C315.092 221.924 315.166 222.296 315.314 222.546C315.462 222.79 315.652 222.958 315.885 223.049C316.124 223.134 316.382 223.177 316.661 223.177C316.865 223.177 317.044 223.163 317.197 223.134C317.351 223.106 317.47 223.083 317.555 223.066L318.016 225.171C317.868 225.228 317.658 225.285 317.385 225.342C317.112 225.404 316.771 225.438 316.362 225.444C315.692 225.455 315.067 225.336 314.487 225.086C313.908 224.836 313.439 224.45 313.081 223.927C312.723 223.404 312.544 222.748 312.544 221.958L312.544 209.046ZM320.14 225.273L320.14 212.183L322.603 212.183L322.603 214.262L322.739 214.262C322.978 213.558 323.398 213.004 324.001 212.6C324.609 212.191 325.296 211.987 326.063 211.987C326.222 211.987 326.41 211.992 326.626 212.004C326.847 212.015 327.021 212.029 327.146 212.046L327.146 214.484C327.043 214.455 326.861 214.424 326.6 214.39C326.339 214.35 326.077 214.33 325.816 214.33C325.214 214.33 324.677 214.458 324.205 214.714C323.739 214.964 323.37 215.313 323.097 215.762C322.825 216.205 322.688 216.711 322.688 217.279L322.688 225.273L320.14 225.273ZM330.904 230.183C330.523 230.183 330.177 230.151 329.864 230.089C329.552 230.032 329.319 229.969 329.165 229.901L329.779 227.813C330.245 227.938 330.66 227.992 331.023 227.975C331.387 227.958 331.708 227.822 331.986 227.566C332.271 227.31 332.521 226.893 332.736 226.313L333.052 225.444L328.262 212.183L330.989 212.183L334.305 222.342L334.441 222.342L337.756 212.183L340.492 212.183L335.097 227.021C334.847 227.702 334.529 228.279 334.143 228.751C333.756 229.228 333.296 229.586 332.762 229.825C332.228 230.063 331.609 230.183 330.904 230.183ZM163.533 261.563C162.704 261.563 161.954 261.41 161.283 261.103C160.613 260.79 160.081 260.339 159.689 259.748C159.303 259.157 159.11 258.433 159.11 257.575C159.11 256.836 159.252 256.228 159.536 255.751C159.82 255.273 160.204 254.896 160.687 254.617C161.17 254.339 161.709 254.129 162.306 253.987C162.903 253.844 163.51 253.737 164.13 253.663C164.914 253.572 165.55 253.498 166.039 253.441C166.528 253.379 166.883 253.279 167.104 253.143C167.326 253.006 167.437 252.785 167.437 252.478L167.437 252.418C167.437 251.674 167.226 251.097 166.806 250.688C166.391 250.279 165.772 250.075 164.948 250.075C164.09 250.075 163.414 250.265 162.92 250.646C162.431 251.021 162.093 251.438 161.905 251.898L159.51 251.353C159.795 250.558 160.209 249.915 160.755 249.427C161.306 248.933 161.939 248.575 162.655 248.353C163.371 248.126 164.124 248.012 164.914 248.012C165.437 248.012 165.991 248.075 166.576 248.2C167.167 248.319 167.718 248.54 168.229 248.864C168.746 249.188 169.17 249.651 169.499 250.254C169.829 250.85 169.993 251.626 169.993 252.58L169.993 261.273L167.505 261.273L167.505 259.484L167.403 259.484C167.238 259.813 166.991 260.137 166.661 260.455C166.331 260.773 165.908 261.038 165.391 261.248C164.874 261.458 164.255 261.563 163.533 261.563ZM164.087 259.518C164.792 259.518 165.394 259.379 165.894 259.1C166.4 258.822 166.783 258.458 167.045 258.009C167.312 257.555 167.445 257.069 167.445 256.552L167.445 254.864C167.354 254.955 167.178 255.04 166.917 255.12C166.661 255.194 166.368 255.259 166.039 255.316C165.709 255.367 165.388 255.415 165.076 255.461C164.763 255.501 164.502 255.535 164.292 255.563C163.797 255.626 163.346 255.731 162.937 255.879C162.533 256.026 162.209 256.239 161.965 256.518C161.726 256.79 161.607 257.154 161.607 257.609C161.607 258.239 161.84 258.717 162.306 259.04C162.772 259.359 163.366 259.518 164.087 259.518ZM178.42 266.455C177.38 266.455 176.486 266.319 175.736 266.046C174.991 265.773 174.383 265.413 173.912 264.964C173.44 264.515 173.088 264.023 172.855 263.489L175.045 262.586C175.199 262.836 175.403 263.1 175.659 263.379C175.92 263.663 176.273 263.904 176.716 264.103C177.165 264.302 177.741 264.401 178.446 264.401C179.412 264.401 180.21 264.165 180.841 263.694C181.471 263.228 181.787 262.484 181.787 261.461L181.787 258.887L181.625 258.887C181.471 259.165 181.25 259.475 180.96 259.816C180.676 260.157 180.284 260.452 179.784 260.702C179.284 260.952 178.633 261.077 177.832 261.077C176.798 261.077 175.866 260.836 175.037 260.353C174.213 259.864 173.559 259.146 173.076 258.197C172.599 257.242 172.361 256.069 172.361 254.677C172.361 253.285 172.596 252.092 173.068 251.097C173.545 250.103 174.199 249.342 175.028 248.813C175.858 248.279 176.798 248.012 177.849 248.012C178.662 248.012 179.318 248.148 179.818 248.421C180.318 248.688 180.707 249.001 180.986 249.359C181.27 249.717 181.488 250.032 181.642 250.305L181.829 250.305L181.829 248.183L184.326 248.183L184.326 261.563C184.326 262.688 184.065 263.612 183.542 264.333C183.02 265.055 182.312 265.589 181.42 265.935C180.534 266.282 179.534 266.455 178.42 266.455ZM178.395 258.964C179.128 258.964 179.747 258.793 180.253 258.452C180.764 258.106 181.15 257.612 181.412 256.969C181.679 256.322 181.812 255.546 181.812 254.643C181.812 253.762 181.682 252.987 181.42 252.316C181.159 251.646 180.775 251.123 180.27 250.748C179.764 250.367 179.139 250.177 178.395 250.177C177.628 250.177 176.988 250.376 176.477 250.773C175.966 251.165 175.579 251.7 175.318 252.376C175.062 253.052 174.934 253.808 174.934 254.643C174.934 255.501 175.065 256.254 175.326 256.901C175.588 257.549 175.974 258.055 176.486 258.418C177.003 258.782 177.639 258.964 178.395 258.964ZM191.098 261.563C190.268 261.563 189.518 261.41 188.848 261.103C188.177 260.79 187.646 260.339 187.254 259.748C186.868 259.157 186.674 258.433 186.674 257.575C186.674 256.836 186.817 256.228 187.101 255.751C187.385 255.273 187.768 254.896 188.251 254.617C188.734 254.339 189.274 254.129 189.87 253.987C190.467 253.844 191.075 253.737 191.694 253.663C192.478 253.572 193.115 253.498 193.603 253.441C194.092 253.379 194.447 253.279 194.669 253.143C194.89 253.006 195.001 252.785 195.001 252.478L195.001 252.418C195.001 251.674 194.791 251.097 194.37 250.688C193.956 250.279 193.336 250.075 192.513 250.075C191.655 250.075 190.978 250.265 190.484 250.646C189.995 251.021 189.657 251.438 189.47 251.898L187.075 251.353C187.359 250.558 187.774 249.915 188.319 249.427C188.87 248.933 189.504 248.575 190.22 248.353C190.936 248.126 191.689 248.012 192.478 248.012C193.001 248.012 193.555 248.075 194.14 248.2C194.731 248.319 195.282 248.54 195.794 248.864C196.311 249.188 196.734 249.651 197.064 250.254C197.393 250.85 197.558 251.626 197.558 252.58L197.558 261.273L195.069 261.273L195.069 259.484L194.967 259.484C194.802 259.813 194.555 260.137 194.226 260.455C193.896 260.773 193.473 261.038 192.956 261.248C192.439 261.458 191.819 261.563 191.098 261.563ZM191.652 259.518C192.356 259.518 192.959 259.379 193.459 259.1C193.964 258.822 194.348 258.458 194.609 258.009C194.876 257.555 195.01 257.069 195.01 256.552L195.01 254.864C194.919 254.955 194.743 255.04 194.481 255.12C194.226 255.194 193.933 255.259 193.603 255.316C193.274 255.367 192.953 255.415 192.64 255.461C192.328 255.501 192.067 255.535 191.856 255.563C191.362 255.626 190.91 255.731 190.501 255.879C190.098 256.026 189.774 256.239 189.53 256.518C189.291 256.79 189.172 257.154 189.172 257.609C189.172 258.239 189.405 258.717 189.87 259.04C190.336 259.359 190.93 259.518 191.652 259.518ZM200.496 261.273L200.496 248.183L203.044 248.183L203.044 261.273L200.496 261.273ZM201.783 246.163C201.34 246.163 200.959 246.015 200.641 245.719C200.329 245.418 200.172 245.06 200.172 244.646C200.172 244.225 200.329 243.867 200.641 243.572C200.959 243.271 201.34 243.12 201.783 243.12C202.226 243.12 202.604 243.271 202.917 243.572C203.235 243.867 203.394 244.225 203.394 244.646C203.394 245.06 203.235 245.418 202.917 245.719C202.604 246.015 202.226 246.163 201.783 246.163ZM208.565 253.501L208.565 261.273L206.017 261.273L206.017 248.183L208.463 248.183L208.463 250.313L208.625 250.313C208.926 249.62 209.397 249.063 210.039 248.643C210.687 248.222 211.503 248.012 212.485 248.012C213.378 248.012 214.159 248.2 214.829 248.575C215.5 248.944 216.02 249.495 216.389 250.228C216.758 250.961 216.943 251.867 216.943 252.947L216.943 261.273L214.395 261.273L214.395 253.254C214.395 252.305 214.147 251.563 213.653 251.029C213.159 250.489 212.48 250.219 211.616 250.219C211.025 250.219 210.5 250.347 210.039 250.603C209.585 250.859 209.224 251.234 208.957 251.728C208.696 252.217 208.565 252.808 208.565 253.501ZM228.348 243.819L228.348 261.273L225.8 261.273L225.8 243.819L228.348 243.819ZM235.13 261.563C234.301 261.563 233.551 261.41 232.88 261.103C232.21 260.79 231.679 260.339 231.287 259.748C230.9 259.157 230.707 258.433 230.707 257.575C230.707 256.836 230.849 256.228 231.133 255.751C231.417 255.273 231.801 254.896 232.284 254.617C232.767 254.339 233.306 254.129 233.903 253.987C234.5 253.844 235.108 253.737 235.727 253.663C236.511 253.572 237.147 253.498 237.636 253.441C238.125 253.379 238.48 253.279 238.701 253.143C238.923 253.006 239.034 252.785 239.034 252.478L239.034 252.418C239.034 251.674 238.823 251.097 238.403 250.688C237.988 250.279 237.369 250.075 236.545 250.075C235.687 250.075 235.011 250.265 234.517 250.646C234.028 251.021 233.69 251.438 233.502 251.898L231.108 251.353C231.392 250.558 231.806 249.915 232.352 249.427C232.903 248.933 233.537 248.575 234.252 248.353C234.968 248.126 235.721 248.012 236.511 248.012C237.034 248.012 237.588 248.075 238.173 248.2C238.764 248.319 239.315 248.54 239.826 248.864C240.343 249.188 240.767 249.651 241.096 250.254C241.426 250.85 241.59 251.626 241.59 252.58L241.59 261.273L239.102 261.273L239.102 259.484L239 259.484C238.835 259.813 238.588 260.137 238.258 260.455C237.929 260.773 237.505 261.038 236.988 261.248C236.471 261.458 235.852 261.563 235.13 261.563ZM235.684 259.518C236.389 259.518 236.991 259.379 237.491 259.1C237.997 258.822 238.38 258.458 238.642 258.009C238.909 257.555 239.042 257.069 239.042 256.552L239.042 254.864C238.951 254.955 238.775 255.04 238.514 255.12C238.258 255.194 237.965 255.259 237.636 255.316C237.306 255.367 236.985 255.415 236.673 255.461C236.36 255.501 236.099 255.535 235.889 255.563C235.394 255.626 234.943 255.731 234.534 255.879C234.13 256.026 233.806 256.239 233.562 256.518C233.323 256.79 233.204 257.154 233.204 257.609C233.204 258.239 233.437 258.717 233.903 259.04C234.369 259.359 234.963 259.518 235.684 259.518ZM250.639 248.183L250.639 250.228L243.489 250.228L243.489 248.183L250.639 248.183ZM245.406 245.046L247.955 245.046L247.955 257.43C247.955 257.924 248.029 258.296 248.176 258.546C248.324 258.79 248.514 258.958 248.747 259.049C248.986 259.134 249.245 259.177 249.523 259.177C249.728 259.177 249.906 259.163 250.06 259.134C250.213 259.106 250.333 259.083 250.418 259.066L250.878 261.171C250.73 261.228 250.52 261.285 250.247 261.342C249.975 261.404 249.634 261.438 249.225 261.444C248.554 261.455 247.929 261.336 247.35 261.086C246.77 260.836 246.301 260.45 245.943 259.927C245.585 259.404 245.406 258.748 245.406 257.958L245.406 245.046ZM258.504 261.538C257.214 261.538 256.103 261.262 255.171 260.711C254.245 260.154 253.529 259.373 253.024 258.367C252.524 257.356 252.274 256.171 252.274 254.813C252.274 253.472 252.524 252.29 253.024 251.268C253.529 250.245 254.234 249.447 255.137 248.873C256.046 248.299 257.109 248.012 258.325 248.012C259.063 248.012 259.779 248.134 260.473 248.379C261.166 248.623 261.788 249.006 262.339 249.529C262.89 250.052 263.325 250.731 263.643 251.566C263.961 252.396 264.12 253.404 264.12 254.592L264.12 255.495L253.714 255.495L253.714 253.586L261.623 253.586C261.623 252.915 261.487 252.322 261.214 251.805C260.941 251.282 260.558 250.87 260.063 250.569C259.575 250.268 259.001 250.117 258.342 250.117C257.626 250.117 257.001 250.293 256.467 250.646C255.938 250.992 255.529 251.447 255.24 252.009C254.955 252.566 254.813 253.171 254.813 253.825L254.813 255.316C254.813 256.191 254.967 256.935 255.274 257.549C255.586 258.163 256.021 258.631 256.578 258.955C257.134 259.273 257.785 259.433 258.529 259.433C259.012 259.433 259.453 259.364 259.85 259.228C260.248 259.086 260.592 258.876 260.882 258.597C261.171 258.319 261.393 257.975 261.546 257.566L263.958 258.001C263.765 258.711 263.419 259.333 262.919 259.867C262.424 260.396 261.802 260.808 261.052 261.103C260.308 261.393 259.458 261.538 258.504 261.538ZM266.492 261.273L266.492 248.183L268.955 248.183L268.955 250.262L269.091 250.262C269.33 249.558 269.75 249.004 270.352 248.6C270.96 248.191 271.648 247.987 272.415 247.987C272.574 247.987 272.762 247.992 272.977 248.004C273.199 248.015 273.372 248.029 273.497 248.046L273.497 250.484C273.395 250.455 273.213 250.424 272.952 250.39C272.691 250.35 272.429 250.33 272.168 250.33C271.566 250.33 271.029 250.458 270.557 250.714C270.091 250.964 269.722 251.313 269.449 251.762C269.176 252.205 269.04 252.711 269.04 253.279L269.04 261.273L266.492 261.273Z" fill="white" />
</svg>
